# xmcd CD database file
#
# Track frame offsets:
#	150
#	12447
#	22670
#	34478
#	45657
#	57333
#	71187
#	83509
#	95535
#	109195
#	120235
#	131076
#	145547
#	157737
#	169834
#	183078
#	197121
#	209822
#	221948
#	233972
#	243969
#	256646
#	271582
#	283756
#	296645
#
# Disc length: 4091 seconds
#
# Revision: 1
# Processed by: cddbd v1.5.1PL2 Copyright (c) Steve Scherf et al.
# Submitted via: CDex 1.51
#
DISCID=660ff919
DTITLE=Various Artist - Chicago Down Home Blues, Vol. 1
DYEAR=1999
DGENRE=Blues
TTITLE0=Telephone Blues - Snooky and Moody
TTITLE1=Boogie - Snooky and Moody
TTITLE2=Ora Nelle Blues - Othum Brown
TTITLE3=Money Taking Woman - Johnny Young
TTITLE4=Worried Man Blues - Johnny Williams
TTITLE5=Back to Korea Blues - Sunnyland Slim
TTITLE6=School Days - Floyd Jones
TTITLE7=Let Me Ride Your Mule - Man Young
TTITLE8=One Doggone Reason - St. Louis Jimmy Oden
TTITLE9=I Just Keep Loving Her - Little Walter
TTITLE10=Come on Babe - Blues Boy Willie
TTITLE11=4 O'Clock Blues - Delta Joe Sanders
TTITLE12=Going Down the Line - John Brim
TTITLE13=Hard Times - Floyd Jones
TTITLE14=My Baby Walked Out - Man Young
TTITLE15=It's All over Now - Sunnyland Slim
TTITLE16=Stockyard Blues - Floyd Jones
TTITLE17=Coming up Fast - St. Louis Jimmy Oden
TTITLE18=Dark Clouds - John Brim
TTITLE19=Blue Baby - Little Walter
TTITLE20=Leaving Daddy Blues - John Brim
TTITLE21=Roll Tumble and Slip - Delta Joe Sanders
TTITLE22=I Want My Baby - Little Walter
TTITLE23=Lonesome Man Blues - John Brim
TTITLE24=Keep What You Got - Floyd Jones
EXTD=YEAR: 1999
EXTT0=
EXTT1=
EXTT2=
EXTT3=
EXTT4=
EXTT5=
EXTT6=
EXTT7=
EXTT8=
EXTT9=
EXTT10=
EXTT11=
EXTT12=
EXTT13=
EXTT14=
EXTT15=
EXTT16=
EXTT17=
EXTT18=
EXTT19=
EXTT20=
EXTT21=
EXTT22=
EXTT23=
EXTT24=
PLAYORDER=
